<svg width="39" height="39" viewBox="0 0 39 39" fill="none" xmlns="http://www.w3.org/2000/svg">
<path fill-rule="evenodd" clip-rule="evenodd" d="M34.2351 0C36.865 0 39 2.1351 39 4.76486V34.2351C39 36.8649 36.8649 39 34.2351 39H4.76486C2.1351 39 0 36.8649 0 34.2351V4.76486C0 2.1351 2.13502 0 4.76486 0H34.2351V0ZM19.5 6.16992C15.8798 6.16992 15.4258 6.18523 14.004 6.25013C12.5852 6.31488 11.6162 6.54019 10.7683 6.86979C9.89168 7.21043 9.14832 7.66624 8.40724 8.40724C7.66617 9.14832 7.21035 9.89176 6.86971 10.7683C6.54019 11.6162 6.31488 12.5852 6.25005 14.004C6.18523 15.4258 6.16992 15.8798 6.16992 19.5C6.16992 23.1202 6.18523 23.5742 6.25005 24.996C6.31488 26.4148 6.54019 27.3838 6.86971 28.2317C7.21035 29.1082 7.66617 29.8517 8.40724 30.5928C9.14832 31.3338 9.89168 31.7896 10.7683 32.1303C11.6162 32.4598 12.5852 32.6851 14.004 32.7499C15.4258 32.8148 15.8798 32.8301 19.5 32.8301C23.1202 32.8301 23.5742 32.8148 24.996 32.7499C26.4148 32.6851 27.3838 32.4598 28.2317 32.1303C29.1082 31.7896 29.8517 31.3338 30.5928 30.5928C31.3338 29.8517 31.7896 29.1082 32.1303 28.2317C32.4598 27.3838 32.6851 26.4148 32.7499 24.996C32.8148 23.5742 32.8301 23.1202 32.8301 19.5C32.8301 15.8798 32.8148 15.4258 32.7499 14.004C32.6851 12.5852 32.4598 11.6162 32.1303 10.7683C31.7896 9.89176 31.3338 9.14832 30.5928 8.40724C29.8517 7.66624 29.1082 7.21043 28.2317 6.86979C27.3838 6.54019 26.4148 6.31488 24.996 6.25013C23.5742 6.18523 23.1202 6.16992 19.5 6.16992ZM19.5 8.57177C23.0593 8.57177 23.4809 8.58533 24.8865 8.64947C26.1861 8.70881 26.8919 8.92597 27.3617 9.1084C27.9839 9.35025 28.428 9.63917 28.8944 10.1056C29.3609 10.572 29.6497 11.0161 29.8916 11.6383C30.0741 12.1081 30.2913 12.8139 30.3505 14.1135C30.4147 15.5191 30.4283 15.9407 30.4283 19.5C30.4283 23.0593 30.4147 23.4809 30.3505 24.8865C30.2913 26.1861 30.0741 26.8919 29.8916 27.3617C29.6497 27.9839 29.3609 28.428 28.8944 28.8944C28.428 29.3609 27.9839 29.6497 27.3617 29.8916C26.8919 30.0741 26.1861 30.2913 24.8865 30.3505C23.4811 30.4147 23.0595 30.4283 19.5 30.4283C15.9405 30.4283 15.519 30.4147 14.1135 30.3505C12.8139 30.2913 12.1081 30.0741 11.6383 29.8916C11.0161 29.6497 10.572 29.3609 10.1056 28.8944C9.63909 28.428 9.35017 27.9839 9.1084 27.3617C8.9259 26.8919 8.70873 26.1861 8.64939 24.8865C8.58526 23.4809 8.5717 23.0593 8.5717 19.5C8.5717 15.9407 8.58526 15.5191 8.64939 14.1135C8.70873 12.8139 8.9259 12.1081 9.1084 11.6383C9.35017 11.0161 9.63909 10.572 10.1056 10.1056C10.572 9.63917 11.0161 9.35025 11.6383 9.1084C12.1081 8.92597 12.8139 8.70881 14.1135 8.64947C15.5191 8.58533 15.9407 8.57177 19.5 8.57177ZM19.5 12.6548C15.7195 12.6548 12.6548 15.7195 12.6548 19.5C12.6548 23.2805 15.7195 26.3452 19.5 26.3452C23.2805 26.3452 26.3452 23.2805 26.3452 19.5C26.3452 15.7195 23.2805 12.6548 19.5 12.6548ZM19.5 23.9433C17.046 23.9433 15.0567 21.954 15.0567 19.5C15.0567 17.046 17.046 15.0567 19.5 15.0567C21.954 15.0567 23.9433 17.046 23.9433 19.5C23.9433 21.954 21.954 23.9433 19.5 23.9433ZM28.2153 12.3844C28.2153 13.2678 27.499 13.9839 26.6156 13.9839C25.7322 13.9839 25.0161 13.2678 25.0161 12.3844C25.0161 11.501 25.7322 10.7848 26.6156 10.7848C27.499 10.7848 28.2153 11.501 28.2153 12.3844Z" fill="black"/>
</svg>
